<svg t="1786891479175" class="icon" viewBox="0 0 1024 1024" version="1.1" xmlns="http://www.w3.org/2000/svg" p-id="1454" width="200" height="200"><path d="M0 0h1024v1024H0z" fill="#EFF5FF" fill-opacity="0" p-id="1455"></path><path d="M96 504C96 269.824 285.824 80 520 80S944 269.824 944 504 754.176 928 520 928 96 738.176 96 504z" fill="#609307" p-id="1456"></path><path d="M520 0a506.832 506.832 0 0 1 101.488 10.24 500.48 500.48 0 0 1 180.352 75.888 505.024 505.024 0 0 1 109.136 99.792 505.472 505.472 0 0 1 73.392 121.872 500.8 500.8 0 0 1 34.816 126.336v0.016c3.2 23.072 4.816 46.352 4.816 69.856a506.976 506.976 0 0 1-10.24 101.488 500.768 500.768 0 0 1-12.448 48.416v0.016a500.192 500.192 0 0 1-35.232 84.848 502.816 502.816 0 0 1-55.088 83.296 506.112 506.112 0 0 1-72.896 72.896 505.392 505.392 0 0 1-121.888 73.392 500.24 500.24 0 0 1-126.352 34.848c-23.056 3.2-46.352 4.8-69.856 4.8a506.88 506.88 0 0 1-101.488-10.24 500.64 500.64 0 0 1-180.352-75.888A505.552 505.552 0 0 1 55.632 700.208 500.56 500.56 0 0 1 20.8 573.84C17.6 550.8 16 527.52 16 504a503.52 503.52 0 0 1 22.688-149.888 500.656 500.656 0 0 1 35.216-84.864 503.168 503.168 0 0 1 55.104-83.312 506.224 506.224 0 0 1 72.928-72.928 505.632 505.632 0 0 1 83.296-55.088A502.368 502.368 0 0 1 450.16 4.8C473.2 1.6 496.48 0 520 0z m0 80C754.176 80 944 269.824 944 504S754.176 928 520 928 96 738.176 96 504 285.824 80 520 80z" fill="#C4E48A" p-id="1457"></path><path d="M96 504C96 269.824 285.824 80 520 80S944 269.824 944 504 754.176 928 520 928 96 738.176 96 504z" fill="#609307" p-id="1458"></path><path d="M520 32a474.832 474.832 0 0 1 95.072 9.6 468.736 468.736 0 0 1 124.432 44.448 471.248 471.248 0 0 1 78.208 51.664 473.664 473.664 0 0 1 93.648 102.352 471.472 471.472 0 0 1 59.408 123.568v0.016a468.656 468.656 0 0 1 16.56 73.76A474.88 474.88 0 0 1 992 504a474.784 474.784 0 0 1-9.6 95.072 468.736 468.736 0 0 1-44.448 124.448 471.504 471.504 0 0 1-51.632 78.16 473.52 473.52 0 0 1-102.4 93.68 471.36 471.36 0 0 1-123.552 59.408 469.104 469.104 0 0 1-73.76 16.56A474.928 474.928 0 0 1 520 976a474.864 474.864 0 0 1-95.072-9.6 468.416 468.416 0 0 1-124.432-44.464 471.36 471.36 0 0 1-78.16-51.616 473.92 473.92 0 0 1-137.232-182.576 468.544 468.544 0 0 1-32.432-117.12A474.8 474.8 0 0 1 48 504a474.8 474.8 0 0 1 9.6-95.072 468.912 468.912 0 0 1 44.448-124.416v-0.016a471.072 471.072 0 0 1 51.648-78.208 473.744 473.744 0 0 1 68.592-68.592 473.472 473.472 0 0 1 78.208-51.648 470.272 470.272 0 0 1 152.896-49.376A474.784 474.784 0 0 1 520 32z m0 48C754.176 80 944 269.824 944 504S754.176 928 520 928 96 738.176 96 504 285.824 80 520 80z" fill="#FFFFFF" p-id="1459"></path><path d="M96 504C96 269.824 285.824 80 520 80S944 269.824 944 504 754.176 928 520 928 96 738.176 96 504z" fill="#609307" p-id="1460"></path><path d="M125.248 504c0-218.016 176.736-394.752 394.752-394.752 218.016 0 394.752 176.736 394.752 394.752 0 218.016-176.736 394.752-394.752 394.752-218.016 0-394.752-176.736-394.752-394.752z" fill="#FDFACD" p-id="1461"></path><path d="M136 504c0-212.08 171.92-384 384-384s384 171.92 384 384-171.92 384-384 384-384-171.92-384-384z" fill="#E75353" p-id="1462"></path><path d="M516.352 215.248c-6.064 0-10.976-11.648-10.976-19.904s4.912-12.992 10.976-12.992c6.048 0 10.96 4.736 10.96 12.992s-4.912 19.904-10.96 19.904zM516.352 796.416c-6.064 0-10.976 11.632-10.976 19.888 0 8.256 4.912 13.008 10.976 13.008 6.048 0 10.96-4.752 10.96-13.008s-4.912-19.888-10.96-19.888z" fill="#000000" p-id="1463"></path><path d="M225.76 505.824c0 6.064-11.632 10.976-19.888 10.976-8.272 0-13.008-4.912-13.008-10.976 0-6.048 4.736-10.96 13.008-10.96 8.256 0 19.888 4.912 19.888 10.96zM806.928 505.824c0 6.064 11.632 10.976 19.904 10.976 8.256 0 12.992-4.912 12.992-10.976 0-6.048-4.736-10.96-12.992-10.96-8.272 0-19.904 4.912-19.904 10.96z" fill="#000000" p-id="1464"></path><path d="M318.624 292.88c-4.448 4.128-15.952-1.056-21.584-7.12-5.6-6.048-5.248-12.864-0.8-16.976 4.432-4.128 11.264-4 16.88 2.064 5.616 6.048 9.936 17.92 5.504 22.032zM714.08 718.768c-4.448 4.128-0.128 16 5.488 22.048 5.616 6.048 12.448 6.176 16.88 2.064 4.448-4.128 4.8-10.944-0.8-16.992-5.632-6.048-17.136-11.232-21.584-7.12z" fill="#000000" p-id="1465"></path><path d="M303.392 703.552c4.128 4.432-1.056 15.952-7.104 21.568-6.064 5.616-12.88 5.248-16.992 0.816-4.128-4.432-4-11.264 2.064-16.88 6.048-5.616 17.92-9.936 22.032-5.504zM729.28 308.096c4.128 4.448 16 0.128 22.048-5.504 6.048-5.6 6.192-12.432 2.08-16.88-4.128-4.432-10.944-4.8-17.008 0.816-6.048 5.616-11.232 17.12-7.12 21.568z" fill="#000000" p-id="1466"></path><path d="M247.408 395.76c-2.288 5.6-14.912 5.744-22.56 2.608-7.648-3.12-10.176-9.472-7.888-15.072 2.304-5.6 8.544-8.352 16.192-5.216 7.648 3.12 16.56 12.08 14.256 17.68zM785.28 615.888c-2.288 5.6 6.608 14.56 14.256 17.696 7.648 3.12 13.888 0.384 16.192-5.232 2.288-5.6-0.24-11.936-7.888-15.072-7.632-3.12-20.272-2.992-22.56 2.608z" fill="#000000" p-id="1467"></path><path d="M406.272 774.768c5.6 2.288 5.744 14.912 2.624 22.56-3.136 7.648-9.472 10.176-15.088 7.872-5.6-2.288-8.352-8.544-5.216-16.176 3.12-7.648 12.08-16.56 17.68-14.256zM626.4 236.896c5.616 2.288 14.56-6.624 17.696-14.256 3.12-7.648 0.384-13.904-5.216-16.192-5.6-2.288-11.952 0.24-15.088 7.872-3.12 7.648-2.992 20.272 2.624 22.56z" fill="#000000" p-id="1468"></path><path d="M248.064 617.456c2.32 5.6-6.544 14.608-14.16 17.76-7.632 3.2-13.888 0.48-16.224-5.12-2.32-5.6 0.16-11.936 7.792-15.12 7.632-3.168 20.256-3.104 22.592 2.48zM784.64 394.192c2.32 5.6 14.944 5.648 22.56 2.48 7.632-3.168 10.128-9.52 7.808-15.12-2.336-5.6-8.592-8.304-16.224-5.12-7.616 3.168-16.48 12.16-14.16 17.76z" fill="#000000" p-id="1469"></path><path d="M627.984 774.112c5.6-2.32 14.592 6.528 17.76 14.16 3.184 7.616 0.48 13.888-5.12 16.208-5.6 2.336-11.952-0.16-15.12-7.792-3.184-7.616-3.12-20.24 2.48-22.56zM404.704 237.536c5.6-2.32 5.664-14.944 2.48-22.56-3.168-7.632-9.52-10.128-15.12-7.808-5.6 2.336-8.288 8.592-5.12 16.224 3.168 7.616 12.16 16.48 17.76 14.144z" fill="#000000" p-id="1470"></path><path d="M564.688 726.288c6.048-0.368 11.648 10.96 12.16 19.2 0.48 8.24-4.128 13.28-10.176 13.648-6.032 0.368-11.232-4.08-11.728-12.32-0.496-8.24 3.68-20.16 9.744-20.528zM484.272 290.032c5.6-2.32 5.664-14.96 2.48-22.576-3.168-7.632-9.52-10.128-15.12-7.792-5.584 2.32-8.288 8.592-5.12 16.208 3.168 7.632 12.16 16.48 17.76 14.16z" fill="#000000" p-id="1471"></path><path d="M704.224 631.232c4-4.544 15.984-0.528 22.176 4.928 6.192 5.456 6.512 12.272 2.512 16.816-4 4.56-10.816 5.104-17.008-0.352-6.192-5.472-11.68-16.832-7.68-21.392zM338.24 380.544c2.304-5.6-6.608-14.56-14.24-17.68-7.648-3.136-13.92-0.384-16.208 5.216-2.288 5.6 0.24 11.952 7.888 15.072 7.648 3.136 20.272 2.992 22.56-2.608z" fill="#000000" p-id="1472"></path><path d="M735.44 466.176c-0.368-6.048 10.944-11.664 19.2-12.16 8.224-0.512 13.28 4.096 13.632 10.128 0.384 6.048-4.048 11.248-12.288 11.76-8.256 0.496-20.16-3.68-20.544-9.728zM299.264 546.992c-2.336-5.6-14.96-5.632-22.592-2.464-7.616 3.2-10.096 9.536-7.776 15.136 2.336 5.6 8.608 8.288 16.224 5.12 7.632-3.2 16.48-12.208 14.144-17.792z" fill="#000000" p-id="1473"></path><path d="M639.344 326.128c-4.576-3.968-0.64-15.968 4.8-22.208 5.408-6.224 12.224-6.576 16.8-2.608 4.56 3.984 5.152 10.784-0.272 17.008-5.424 6.24-16.768 11.792-21.328 7.808zM390.832 693.6c-5.632-2.272-14.528 6.688-17.6 14.352-3.088 7.664-0.32 13.904 5.312 16.16 5.616 2.256 11.952-0.32 15.04-7.968 3.072-7.664 2.864-20.288-2.752-22.56z" fill="#000000" p-id="1474"></path></svg>